M48
; DRILL file {KiCad 5.1.6-c6e7f7d~87~ubuntu18.04.1} date Tue Jun  8 23:32:37 2021
; FORMAT={-:-/ absolute / inch / decimal}
; #@! TF.CreationDate,2021-06-08T23:32:37+01:00
; #@! TF.GenerationSoftware,Kicad,Pcbnew,5.1.6-c6e7f7d~87~ubuntu18.04.1
FMAT,2
INCH
T1C0.0157
T2C0.0315
T3C0.0394
T4C0.0433
T5C0.0598
T6C0.0984
%
G90
G05
T1
X5.89Y-3.07
X5.89Y-3.13
X5.89Y-3.25
X5.89Y-3.31
X5.89Y-3.37
X5.89Y-3.43
X5.91Y-3.1
X5.91Y-3.16
X5.91Y-3.22
X5.91Y-3.28
X5.91Y-3.34
X5.91Y-3.4
X5.93Y-3.07
X5.93Y-3.13
X5.93Y-3.19
X5.93Y-3.25
X5.93Y-3.31
X5.93Y-3.37
X5.93Y-3.43
X5.95Y-3.1
X5.95Y-3.16
X5.95Y-3.22
X5.95Y-3.28
X5.95Y-3.34
X5.95Y-3.4
X5.97Y-3.07
X5.97Y-3.07
X5.97Y-3.13
X5.97Y-3.13
X5.97Y-3.19
X5.97Y-3.19
X5.97Y-3.25
X5.97Y-3.25
X5.97Y-3.31
X5.97Y-3.31
X5.97Y-3.37
X5.97Y-3.37
X5.97Y-3.43
X5.99Y-3.1
X5.99Y-3.1
X5.99Y-3.16
X5.99Y-3.16
X5.99Y-3.22
X5.99Y-3.22
X5.99Y-3.28
X5.99Y-3.28
X5.99Y-3.34
X5.99Y-3.34
X5.99Y-3.4
X5.99Y-3.4
X5.99Y-3.46
X6.01Y-3.07
X6.01Y-3.07
X6.01Y-3.13
X6.01Y-3.13
X6.01Y-3.19
X6.01Y-3.19
X6.01Y-3.25
X6.01Y-3.25
X6.01Y-3.31
X6.01Y-3.31
X6.01Y-3.37
X6.01Y-3.37
X6.01Y-3.43
X6.03Y-3.1
X6.03Y-3.1
X6.03Y-3.16
X6.03Y-3.16
X6.03Y-3.22
X6.03Y-3.22
X6.03Y-3.28
X6.03Y-3.28
X6.03Y-3.34
X6.03Y-3.34
X6.03Y-3.4
X6.03Y-3.4
X6.03Y-3.46
X6.05Y-3.07
X6.05Y-3.07
X6.05Y-3.13
X6.05Y-3.13
X6.05Y-3.19
X6.05Y-3.19
X6.05Y-3.25
X6.05Y-3.25
X6.05Y-3.31
X6.05Y-3.31
X6.05Y-3.37
X6.05Y-3.37
X6.05Y-3.43
X6.07Y-3.1
X6.07Y-3.16
X6.07Y-3.16
X6.07Y-3.22
X6.07Y-3.22
X6.07Y-3.28
X6.07Y-3.34
X6.07Y-3.34
X6.07Y-3.4
X6.07Y-3.4
X6.07Y-3.46
X6.09Y-3.07
X6.09Y-3.13
X6.09Y-3.19
X6.09Y-3.25
X6.09Y-3.31
X6.09Y-3.37
X6.09Y-3.43
X6.09Y-3.43
X6.09Y-3.66
X6.11Y-3.04
X6.11Y-3.04
X6.11Y-3.1
X6.11Y-3.1
X6.11Y-3.16
X6.11Y-3.16
X6.11Y-3.22
X6.11Y-3.22
X6.11Y-3.28
X6.11Y-3.28
X6.11Y-3.34
X6.11Y-3.34
X6.11Y-3.4
X6.11Y-3.46
X6.11Y-3.46
X6.11Y-3.63
X6.13Y-3.07
X6.13Y-3.07
X6.13Y-3.13
X6.13Y-3.13
X6.13Y-3.19
X6.13Y-3.19
X6.13Y-3.25
X6.13Y-3.25
X6.13Y-3.31
X6.13Y-3.31
X6.13Y-3.37
X6.13Y-3.37
X6.13Y-3.43
X6.13Y-3.43
X6.13Y-3.6
X6.13Y-3.66
X6.15Y-3.04
X6.15Y-3.04
X6.15Y-3.1
X6.15Y-3.1
X6.15Y-3.16
X6.15Y-3.16
X6.15Y-3.22
X6.15Y-3.22
X6.15Y-3.28
X6.15Y-3.28
X6.15Y-3.34
X6.15Y-3.34
X6.15Y-3.4
X6.15Y-3.46
X6.15Y-3.46
X6.15Y-3.63
X6.17Y-3.07
X6.17Y-3.07
X6.17Y-3.13
X6.17Y-3.13
X6.17Y-3.19
X6.17Y-3.19
X6.17Y-3.25
X6.17Y-3.25
X6.17Y-3.31
X6.17Y-3.31
X6.17Y-3.37
X6.17Y-3.37
X6.17Y-3.43
X6.17Y-3.6
X6.17Y-3.66
X6.19Y-3.4
X6.19Y-3.46
X6.19Y-3.63
X6.21Y-3.43
X6.23Y-3.4
X6.23Y-3.46
X6.23Y-3.46
X6.25Y-3.43
X6.25Y-3.43
X6.27Y-3.4
X6.27Y-3.46
X6.27Y-3.46
X6.29Y-3.43
X6.29Y-3.43
X6.31Y-3.4
X6.31Y-3.46
X6.31Y-3.46
X6.33Y-3.43
X6.33Y-3.43
X6.35Y-2.99
X6.35Y-3.05
X6.35Y-3.11
X6.35Y-3.4
X6.35Y-3.46
X6.37Y-3.02
X6.37Y-3.08
X6.37Y-3.14
X6.37Y-3.43
X6.37Y-3.43
X6.39Y-2.99
X6.39Y-3.05
X6.39Y-3.11
X6.39Y-3.4
X6.39Y-3.4
X6.39Y-3.46
X6.39Y-3.46
X6.41Y-3.43
X6.41Y-3.43
X6.43Y-3.4
X6.43Y-3.4
X6.43Y-3.46
X6.43Y-3.46
X6.48Y-4.03
X6.5Y-3.6
X6.5Y-3.66
X6.5Y-3.72
X6.5Y-4.0
X6.52Y-3.39
X6.52Y-3.45
X6.52Y-3.63
X6.52Y-3.69
X6.52Y-3.75
X6.52Y-3.97
X6.52Y-4.03
X6.54Y-2.99
X6.54Y-3.05
X6.54Y-3.11
X6.54Y-3.17
X6.54Y-3.36
X6.54Y-3.42
X6.54Y-3.6
X6.54Y-3.66
X6.54Y-3.72
X6.54Y-4.0
X6.56Y-3.02
X6.56Y-3.08
X6.56Y-3.14
X6.56Y-3.39
X6.56Y-3.45
X6.56Y-3.63
X6.56Y-3.69
X6.56Y-3.75
X6.56Y-3.97
X6.56Y-4.03
X6.58Y-2.99
X6.58Y-3.05
X6.58Y-3.11
X6.58Y-3.17
X6.58Y-3.36
X6.58Y-3.42
X6.58Y-3.6
X6.58Y-3.66
X6.58Y-3.72
X6.58Y-3.78
X6.58Y-4.0
X6.6Y-3.02
X6.6Y-3.08
X6.6Y-3.14
X6.6Y-3.39
X6.6Y-3.45
X6.6Y-3.63
X6.6Y-3.69
X6.6Y-3.75
X6.6Y-3.81
X6.6Y-3.97
X6.6Y-4.03
X6.62Y-2.99
X6.62Y-3.05
X6.62Y-3.11
X6.62Y-3.17
X6.62Y-3.36
X6.62Y-3.42
X6.62Y-3.6
X6.62Y-3.66
X6.62Y-3.72
X6.62Y-3.78
X6.64Y-3.02
X6.64Y-3.08
X6.64Y-3.14
X6.64Y-3.39
X6.64Y-3.45
X6.64Y-3.63
X6.64Y-3.69
X6.64Y-3.75
X6.66Y-2.99
X6.66Y-3.05
X6.66Y-3.11
X6.66Y-3.17
X6.66Y-3.42
X6.66Y-3.6
X6.66Y-3.66
X6.66Y-3.72
X6.66Y-3.78
X6.68Y-3.45
X6.68Y-3.63
X6.68Y-3.69
X6.68Y-3.75
X6.7Y-3.66
X6.7Y-3.72
X6.72Y-3.69
X6.78Y-3.49
X6.78Y-3.6
X6.8Y-3.52
X6.8Y-3.63
X6.82Y-3.49
X6.82Y-3.6
X6.84Y-3.52
X6.86Y-3.04
X6.86Y-3.16
X6.86Y-3.49
X6.88Y-3.01
X6.88Y-3.07
X6.88Y-3.13
X6.88Y-3.52
X6.9Y-3.04
X6.9Y-3.1
X6.9Y-3.1
X6.9Y-3.16
X6.9Y-3.49
X6.92Y-3.01
X6.92Y-3.07
X6.92Y-3.13
X6.92Y-3.52
X6.94Y-3.04
X6.94Y-3.1
X6.94Y-3.16
X6.94Y-3.49
X6.96Y-3.01
X6.96Y-3.07
X6.96Y-3.52
X6.98Y-3.49
X7.02Y-4.08
X7.04Y-4.05
X7.06Y-4.02
X7.06Y-4.08
X7.07Y-3.52
X7.08Y-3.63
X7.08Y-3.69
X7.08Y-3.99
X7.08Y-4.05
X7.09Y-2.99
X7.09Y-3.11
X7.09Y-3.29
X7.09Y-3.35
X7.09Y-3.41
X7.09Y-3.49
X7.1Y-3.6
X7.1Y-3.66
X7.1Y-3.72
X7.1Y-3.96
X7.1Y-4.02
X7.1Y-4.08
X7.11Y-3.02
X7.11Y-3.08
X7.11Y-3.14
X7.11Y-3.32
X7.11Y-3.38
X7.11Y-3.52
X7.12Y-3.63
X7.12Y-3.69
X7.12Y-3.75
X7.12Y-3.93
X7.12Y-3.99
X7.12Y-4.05
X7.13Y-2.99
X7.13Y-3.05
X7.13Y-3.11
X7.13Y-3.29
X7.13Y-3.35
X7.13Y-3.41
X7.13Y-3.49
X7.14Y-3.6
X7.14Y-3.66
X7.14Y-3.72
X7.14Y-3.78
X7.14Y-3.96
X7.14Y-4.02
X7.14Y-4.08
X7.15Y-3.02
X7.15Y-3.08
X7.15Y-3.14
X7.15Y-3.32
X7.15Y-3.38
X7.15Y-3.52
X7.16Y-3.63
X7.16Y-3.69
X7.16Y-3.75
X7.16Y-3.81
X7.16Y-3.99
X7.16Y-4.05
X7.17Y-2.99
X7.17Y-3.05
X7.17Y-3.11
X7.17Y-3.17
X7.17Y-3.35
X7.17Y-3.41
X7.17Y-3.49
X7.18Y-3.6
X7.18Y-3.66
X7.18Y-3.72
X7.18Y-3.78
X7.18Y-3.84
X7.18Y-3.96
X7.18Y-4.02
X7.18Y-4.08
X7.19Y-3.02
X7.19Y-3.08
X7.19Y-3.14
X7.19Y-3.2
X7.19Y-3.32
X7.19Y-3.38
X7.19Y-3.52
X7.2Y-3.63
X7.2Y-3.69
X7.2Y-3.75
X7.2Y-3.81
X7.2Y-3.99
X7.2Y-4.05
X7.21Y-2.99
X7.21Y-3.05
X7.21Y-3.11
X7.21Y-3.17
X7.21Y-3.35
X7.21Y-3.41
X7.21Y-3.49
X7.22Y-3.6
X7.22Y-3.66
X7.22Y-3.72
X7.22Y-3.78
X7.22Y-3.96
X7.22Y-4.02
X7.22Y-4.08
X7.23Y-3.52
X7.24Y-3.63
X7.24Y-3.69
X7.24Y-3.75
X7.24Y-3.99
X7.24Y-4.05
X7.25Y-3.49
X7.26Y-3.6
X7.26Y-3.66
X7.26Y-3.72
X7.26Y-3.96
X7.26Y-4.02
X7.26Y-4.08
X7.27Y-3.52
X7.28Y-3.63
X7.28Y-3.69
X7.28Y-3.75
X7.28Y-3.99
X7.28Y-4.05
X7.29Y-3.49
X7.3Y-3.66
X7.3Y-3.72
X7.3Y-4.02
X7.3Y-4.08
X7.31Y-3.52
X7.32Y-3.69
X7.32Y-4.05
X7.33Y-3.49
X7.33Y-3.55
X7.34Y-4.08
X7.35Y-3.52
X7.35Y-3.58
X7.37Y-3.49
X7.37Y-3.55
X7.39Y-3.52
X7.39Y-3.58
X7.41Y-3.49
X7.41Y-3.55
X7.43Y-3.08
X7.43Y-3.14
X7.43Y-3.52
X7.45Y-3.11
X7.45Y-3.49
X7.47Y-3.08
X7.47Y-3.14
X7.49Y-3.11
X7.51Y-3.08
X7.51Y-3.14
X7.53Y-3.11
X7.55Y-3.14
X7.57Y-3.11
X7.59Y-3.14
X7.61Y-3.11
X7.63Y-3.08
X7.63Y-3.14
X7.63Y-3.51
X7.64Y-3.27
X7.64Y-3.33
X7.65Y-3.11
X7.65Y-3.54
X7.65Y-4.05
X7.66Y-3.3
X7.67Y-3.08
X7.67Y-3.14
X7.67Y-3.51
X7.67Y-4.02
X7.68Y-3.27
X7.68Y-3.33
X7.69Y-3.11
X7.69Y-3.54
X7.69Y-3.61
X7.69Y-3.67
X7.69Y-3.73
X7.69Y-3.99
X7.69Y-4.05
X7.7Y-3.3
X7.71Y-3.08
X7.71Y-3.14
X7.71Y-3.51
X7.71Y-3.57
X7.71Y-3.64
X7.71Y-3.7
X7.71Y-3.76
X7.71Y-3.96
X7.71Y-4.02
X7.72Y-3.27
X7.72Y-3.33
X7.73Y-3.11
X7.73Y-3.54
X7.73Y-3.61
X7.73Y-3.67
X7.73Y-3.73
X7.73Y-3.93
X7.73Y-3.99
X7.73Y-4.05
X7.74Y-3.3
X7.75Y-3.08
X7.75Y-3.14
X7.75Y-3.51
X7.75Y-3.57
X7.75Y-3.64
X7.75Y-3.7
X7.75Y-3.76
X7.75Y-3.9
X7.75Y-3.96
X7.75Y-4.02
X7.76Y-3.27
X7.76Y-3.33
X7.77Y-3.11
X7.77Y-3.54
X7.77Y-3.67
X7.77Y-3.73
X7.77Y-3.87
X7.77Y-3.93
X7.77Y-3.99
X7.78Y-3.3
X7.79Y-3.08
X7.79Y-3.14
X7.79Y-3.51
X7.79Y-3.7
X7.79Y-3.76
X7.79Y-3.9
X7.79Y-3.96
X7.79Y-4.02
X7.8Y-3.27
X7.8Y-3.33
X7.81Y-3.11
X7.81Y-3.73
X7.81Y-3.87
X7.81Y-3.93
X7.81Y-3.99
X7.82Y-3.3
X7.83Y-3.08
X7.83Y-3.14
X7.83Y-3.51
X7.83Y-3.7
X7.83Y-3.9
X7.83Y-3.96
X7.83Y-4.02
X7.84Y-3.27
X7.84Y-3.33
X7.85Y-3.11
X7.85Y-3.73
X7.85Y-3.87
X7.85Y-3.93
X7.85Y-3.99
X7.85Y-4.05
X7.86Y-3.3
X7.87Y-3.08
X7.87Y-3.14
X7.87Y-3.51
X7.87Y-3.7
X7.87Y-3.9
X7.87Y-3.96
X7.87Y-4.02
X7.88Y-3.27
X7.88Y-3.33
X7.89Y-3.11
X7.89Y-3.73
X7.89Y-3.87
X7.89Y-3.93
X7.89Y-3.99
X7.89Y-4.05
X7.9Y-3.3
X7.91Y-3.08
X7.91Y-3.14
X7.91Y-3.51
X7.91Y-3.7
X7.91Y-3.76
X7.91Y-3.9
X7.91Y-3.96
X7.91Y-4.02
X7.92Y-3.27
X7.92Y-3.33
X7.93Y-3.11
X7.93Y-3.54
X7.93Y-3.67
X7.93Y-3.73
X7.93Y-3.87
X7.93Y-3.93
X7.93Y-3.99
X7.93Y-4.05
X7.94Y-3.3
X7.95Y-3.08
X7.95Y-3.14
X7.95Y-3.51
X7.95Y-3.57
X7.95Y-3.64
X7.95Y-3.7
X7.95Y-3.76
X7.95Y-3.9
X7.95Y-3.96
X7.95Y-4.02
X7.96Y-3.27
X7.96Y-3.33
X7.97Y-3.11
X7.97Y-3.54
X7.97Y-3.61
X7.97Y-3.67
X7.97Y-3.73
X7.97Y-3.87
X7.97Y-3.93
X7.97Y-3.99
X7.97Y-4.05
X7.98Y-3.3
X7.99Y-3.08
X7.99Y-3.14
X7.99Y-3.51
X7.99Y-3.57
X7.99Y-3.64
X7.99Y-3.7
X7.99Y-3.76
X7.99Y-3.9
X7.99Y-3.96
X7.99Y-4.02
X8.0Y-3.27
X8.0Y-3.33
X8.01Y-3.61
X8.01Y-3.67
X8.01Y-3.73
X8.01Y-3.87
X8.01Y-3.93
X8.01Y-3.99
X8.01Y-4.05
X8.03Y-3.7
X8.03Y-3.9
T2
X7.02Y-3.04
X7.02Y-3.34
X7.85Y-3.6131
X7.85Y-3.81
X6.47Y-3.04
X6.47Y-3.34
X6.0779Y-3.8421
X6.1486Y-3.7714
X6.2193Y-3.7007
X6.29Y-3.63
X6.29Y-4.0543
X6.3607Y-3.9836
X6.4314Y-3.9128
X6.5021Y-3.8421
X7.56Y-3.04
X7.56Y-3.34
X7.2779Y-3.8421
X7.3486Y-3.7714
X7.4193Y-3.7007
X7.49Y-3.63
X7.49Y-4.0543
X7.5607Y-3.9836
X7.6314Y-3.9128
X7.7021Y-3.8421
X6.6779Y-3.8421
X6.7486Y-3.7714
X6.8193Y-3.7007
X6.89Y-3.63
X6.89Y-4.0543
X6.9607Y-3.9836
X7.0314Y-3.9128
X7.1021Y-3.8421
X5.82Y-3.04
X5.82Y-3.34
T3
X5.83Y-3.72
X5.83Y-3.82
X5.83Y-3.92
X5.83Y-4.02
T4
X6.26Y-3.1
X6.26Y-3.2
X6.26Y-3.3
X6.8Y-3.1
X6.8Y-3.2
X6.8Y-3.3
X7.34Y-3.1
X7.34Y-3.2
X7.34Y-3.3
T5
X8.095Y-3.1025
X8.095Y-3.3025
X8.095Y-3.5025
X8.1Y-3.81
X8.1Y-4.01
T6
X7.77Y-2.94
X6.01Y-2.9375
X7.7775Y-4.1675
X6.0075Y-4.165
T0
M30
