%TF.GenerationSoftware,KiCad,Pcbnew,5.1.6-c6e7f7d~87~ubuntu18.04.1*%
%TF.CreationDate,2021-06-08T23:32:45+01:00*%
%TF.ProjectId,hp_led_driver,68705f6c-6564-45f6-9472-697665722e6b,rev?*%
%TF.SameCoordinates,Original*%
%TF.FileFunction,Legend,Top*%
%TF.FilePolarity,Positive*%
%FSLAX46Y46*%
G04 Gerber Fmt 4.6, Leading zero omitted, Abs format (unit mm)*
G04 Created by KiCad (PCBNEW 5.1.6-c6e7f7d~87~ubuntu18.04.1) date 2021-06-08 23:32:45*
%MOMM*%
%LPD*%
G01*
G04 APERTURE LIST*
%ADD10C,0.250000*%
%ADD11C,0.120000*%
%ADD12C,0.150000*%
G04 APERTURE END LIST*
D10*
X152543523Y-89606380D02*
X152210190Y-89130190D01*
X151972095Y-89606380D02*
X151972095Y-88606380D01*
X152353047Y-88606380D01*
X152448285Y-88654000D01*
X152495904Y-88701619D01*
X152543523Y-88796857D01*
X152543523Y-88939714D01*
X152495904Y-89034952D01*
X152448285Y-89082571D01*
X152353047Y-89130190D01*
X151972095Y-89130190D01*
X153495904Y-88654000D02*
X153400666Y-88606380D01*
X153257809Y-88606380D01*
X153114952Y-88654000D01*
X153019714Y-88749238D01*
X152972095Y-88844476D01*
X152924476Y-89034952D01*
X152924476Y-89177809D01*
X152972095Y-89368285D01*
X153019714Y-89463523D01*
X153114952Y-89558761D01*
X153257809Y-89606380D01*
X153353047Y-89606380D01*
X153495904Y-89558761D01*
X153543523Y-89511142D01*
X153543523Y-89177809D01*
X153353047Y-89177809D01*
X154305428Y-89082571D02*
X154448285Y-89130190D01*
X154495904Y-89177809D01*
X154543523Y-89273047D01*
X154543523Y-89415904D01*
X154495904Y-89511142D01*
X154448285Y-89558761D01*
X154353047Y-89606380D01*
X153972095Y-89606380D01*
X153972095Y-88606380D01*
X154305428Y-88606380D01*
X154400666Y-88654000D01*
X154448285Y-88701619D01*
X154495904Y-88796857D01*
X154495904Y-88892095D01*
X154448285Y-88987333D01*
X154400666Y-89034952D01*
X154305428Y-89082571D01*
X153972095Y-89082571D01*
X155734000Y-89606380D02*
X155734000Y-88606380D01*
X155972095Y-88606380D01*
X156114952Y-88654000D01*
X156210190Y-88749238D01*
X156257809Y-88844476D01*
X156305428Y-89034952D01*
X156305428Y-89177809D01*
X156257809Y-89368285D01*
X156210190Y-89463523D01*
X156114952Y-89558761D01*
X155972095Y-89606380D01*
X155734000Y-89606380D01*
X156734000Y-89606380D02*
X156734000Y-88939714D01*
X156734000Y-89130190D02*
X156781619Y-89034952D01*
X156829238Y-88987333D01*
X156924476Y-88939714D01*
X157019714Y-88939714D01*
X157353047Y-89606380D02*
X157353047Y-88939714D01*
X157353047Y-88606380D02*
X157305428Y-88654000D01*
X157353047Y-88701619D01*
X157400666Y-88654000D01*
X157353047Y-88606380D01*
X157353047Y-88701619D01*
X157734000Y-88939714D02*
X157972095Y-89606380D01*
X158210190Y-88939714D01*
X158972095Y-89558761D02*
X158876857Y-89606380D01*
X158686380Y-89606380D01*
X158591142Y-89558761D01*
X158543523Y-89463523D01*
X158543523Y-89082571D01*
X158591142Y-88987333D01*
X158686380Y-88939714D01*
X158876857Y-88939714D01*
X158972095Y-88987333D01*
X159019714Y-89082571D01*
X159019714Y-89177809D01*
X158543523Y-89273047D01*
X159448285Y-89606380D02*
X159448285Y-88939714D01*
X159448285Y-89130190D02*
X159495904Y-89034952D01*
X159543523Y-88987333D01*
X159638761Y-88939714D01*
X159734000Y-88939714D01*
X160734000Y-88939714D02*
X160972095Y-89606380D01*
X161210190Y-88939714D01*
X162114952Y-89606380D02*
X161543523Y-89606380D01*
X161829238Y-89606380D02*
X161829238Y-88606380D01*
X161734000Y-88749238D01*
X161638761Y-88844476D01*
X161543523Y-88892095D01*
X162543523Y-89511142D02*
X162591142Y-89558761D01*
X162543523Y-89606380D01*
X162495904Y-89558761D01*
X162543523Y-89511142D01*
X162543523Y-89606380D01*
X163210190Y-88606380D02*
X163305428Y-88606380D01*
X163400666Y-88654000D01*
X163448285Y-88701619D01*
X163495904Y-88796857D01*
X163543523Y-88987333D01*
X163543523Y-89225428D01*
X163495904Y-89415904D01*
X163448285Y-89511142D01*
X163400666Y-89558761D01*
X163305428Y-89606380D01*
X163210190Y-89606380D01*
X163114952Y-89558761D01*
X163067333Y-89511142D01*
X163019714Y-89415904D01*
X162972095Y-89225428D01*
X162972095Y-88987333D01*
X163019714Y-88796857D01*
X163067333Y-88701619D01*
X163114952Y-88654000D01*
X163210190Y-88606380D01*
D11*
%TO.C,U2*%
X180514362Y-95829458D02*
X179347636Y-94662732D01*
X173245304Y-103098515D02*
X180514362Y-95829458D01*
X169497638Y-99350850D02*
X173245304Y-103098515D01*
X176766696Y-92081792D02*
X169497638Y-99350850D01*
X177933422Y-93248518D02*
X176766696Y-92081792D01*
X179347636Y-94662732D02*
G75*
G02*
X177933422Y-93248518I-707107J707107D01*
G01*
%TO.C,C1*%
X200445000Y-91804000D02*
X200760000Y-91804000D01*
X198020000Y-91804000D02*
X198335000Y-91804000D01*
X200445000Y-96744000D02*
X200760000Y-96744000D01*
X198020000Y-96744000D02*
X198335000Y-96744000D01*
X200760000Y-96744000D02*
X200760000Y-91804000D01*
X198020000Y-96744000D02*
X198020000Y-91804000D01*
%TO.C,R3*%
X163298000Y-84296000D02*
X162968000Y-84296000D01*
X162968000Y-84296000D02*
X162968000Y-77756000D01*
X162968000Y-77756000D02*
X163298000Y-77756000D01*
X165378000Y-84296000D02*
X165708000Y-84296000D01*
X165708000Y-84296000D02*
X165708000Y-77756000D01*
X165708000Y-77756000D02*
X165378000Y-77756000D01*
%TO.C,R2*%
X177268000Y-84296000D02*
X176938000Y-84296000D01*
X176938000Y-84296000D02*
X176938000Y-77756000D01*
X176938000Y-77756000D02*
X177268000Y-77756000D01*
X179348000Y-84296000D02*
X179678000Y-84296000D01*
X179678000Y-84296000D02*
X179678000Y-77756000D01*
X179678000Y-77756000D02*
X179348000Y-77756000D01*
%TO.C,R1*%
X190984000Y-84296000D02*
X190654000Y-84296000D01*
X190654000Y-84296000D02*
X190654000Y-77756000D01*
X190654000Y-77756000D02*
X190984000Y-77756000D01*
X193064000Y-84296000D02*
X193394000Y-84296000D01*
X193394000Y-84296000D02*
X193394000Y-77756000D01*
X193394000Y-77756000D02*
X193064000Y-77756000D01*
%TO.C,J1*%
X209423000Y-91503500D02*
X209423000Y-76263500D01*
X201803000Y-91503500D02*
X201803000Y-76263500D01*
X208153000Y-91503500D02*
X208153000Y-76263500D01*
X209423000Y-76263500D02*
X201803000Y-76263500D01*
X209423000Y-91503500D02*
X201803000Y-91503500D01*
%TO.C,J2*%
X146752000Y-93158000D02*
X148082000Y-93158000D01*
X146752000Y-94488000D02*
X146752000Y-93158000D01*
X146752000Y-95758000D02*
X149412000Y-95758000D01*
X149412000Y-95758000D02*
X149412000Y-103438000D01*
X146752000Y-95758000D02*
X146752000Y-103438000D01*
X146752000Y-103438000D02*
X149412000Y-103438000D01*
%TO.C,J3*%
X209550000Y-104394000D02*
X209550000Y-94234000D01*
X201930000Y-104394000D02*
X209550000Y-104394000D01*
X201930000Y-94234000D02*
X201930000Y-104394000D01*
X209550000Y-94234000D02*
X201930000Y-94234000D01*
X208280000Y-94234000D02*
X208280000Y-104394000D01*
%TO.C,Q1*%
X183166000Y-79429000D02*
X184676000Y-79429000D01*
X183166000Y-83130000D02*
X184676000Y-83130000D01*
X184676000Y-86400000D02*
X184676000Y-76160000D01*
X183166000Y-76160000D02*
X187807000Y-76160000D01*
X183166000Y-86400000D02*
X187807000Y-86400000D01*
X187807000Y-86400000D02*
X187807000Y-76160000D01*
X183166000Y-86400000D02*
X183166000Y-76160000D01*
%TO.C,Q2*%
X169450000Y-86400000D02*
X169450000Y-76160000D01*
X174091000Y-86400000D02*
X174091000Y-76160000D01*
X169450000Y-86400000D02*
X174091000Y-86400000D01*
X169450000Y-76160000D02*
X174091000Y-76160000D01*
X170960000Y-86400000D02*
X170960000Y-76160000D01*
X169450000Y-83130000D02*
X170960000Y-83130000D01*
X169450000Y-79429000D02*
X170960000Y-79429000D01*
%TO.C,Q3*%
X155734000Y-79429000D02*
X157244000Y-79429000D01*
X155734000Y-83130000D02*
X157244000Y-83130000D01*
X157244000Y-86400000D02*
X157244000Y-76160000D01*
X155734000Y-76160000D02*
X160375000Y-76160000D01*
X155734000Y-86400000D02*
X160375000Y-86400000D01*
X160375000Y-86400000D02*
X160375000Y-76160000D01*
X155734000Y-86400000D02*
X155734000Y-76160000D01*
%TO.C,U1*%
X193173422Y-93248518D02*
X192006696Y-92081792D01*
X192006696Y-92081792D02*
X184737638Y-99350850D01*
X184737638Y-99350850D02*
X188485304Y-103098515D01*
X188485304Y-103098515D02*
X195754362Y-95829458D01*
X195754362Y-95829458D02*
X194587636Y-94662732D01*
X194587636Y-94662732D02*
G75*
G02*
X193173422Y-93248518I-707107J707107D01*
G01*
%TO.C,U3*%
X162693422Y-93248518D02*
X161526696Y-92081792D01*
X161526696Y-92081792D02*
X154257638Y-99350850D01*
X154257638Y-99350850D02*
X158005304Y-103098515D01*
X158005304Y-103098515D02*
X165274362Y-95829458D01*
X165274362Y-95829458D02*
X164107636Y-94662732D01*
X164107636Y-94662732D02*
G75*
G02*
X162693422Y-93248518I-707107J707107D01*
G01*
%TO.C,R4*%
X149198000Y-77756000D02*
X148868000Y-77756000D01*
X149198000Y-84296000D02*
X149198000Y-77756000D01*
X148868000Y-84296000D02*
X149198000Y-84296000D01*
X146458000Y-77756000D02*
X146788000Y-77756000D01*
X146458000Y-84296000D02*
X146458000Y-77756000D01*
X146788000Y-84296000D02*
X146458000Y-84296000D01*
%TO.C,D1*%
X146305000Y-90289000D02*
X150190000Y-90289000D01*
X146305000Y-88019000D02*
X146305000Y-90289000D01*
X150190000Y-88019000D02*
X146305000Y-88019000D01*
%TO.C,U2*%
D12*
X179196113Y-92322544D02*
X178623693Y-92894964D01*
X178590021Y-92995979D01*
X178590021Y-93063323D01*
X178623693Y-93164338D01*
X178758380Y-93299025D01*
X178859395Y-93332697D01*
X178926739Y-93332697D01*
X179027754Y-93299025D01*
X179600174Y-92726605D01*
X179835876Y-93096995D02*
X179903219Y-93096995D01*
X180004235Y-93130666D01*
X180172593Y-93299025D01*
X180206265Y-93400040D01*
X180206265Y-93467384D01*
X180172593Y-93568399D01*
X180105250Y-93635743D01*
X179970563Y-93703086D01*
X179162441Y-93703086D01*
X179600174Y-94140819D01*
%TO.C,C1*%
X197247142Y-94440666D02*
X197294761Y-94488285D01*
X197342380Y-94631142D01*
X197342380Y-94726380D01*
X197294761Y-94869238D01*
X197199523Y-94964476D01*
X197104285Y-95012095D01*
X196913809Y-95059714D01*
X196770952Y-95059714D01*
X196580476Y-95012095D01*
X196485238Y-94964476D01*
X196390000Y-94869238D01*
X196342380Y-94726380D01*
X196342380Y-94631142D01*
X196390000Y-94488285D01*
X196437619Y-94440666D01*
X197342380Y-93488285D02*
X197342380Y-94059714D01*
X197342380Y-93774000D02*
X196342380Y-93774000D01*
X196485238Y-93869238D01*
X196580476Y-93964476D01*
X196628095Y-94059714D01*
%TO.C,R3*%
X162420380Y-81192666D02*
X161944190Y-81526000D01*
X162420380Y-81764095D02*
X161420380Y-81764095D01*
X161420380Y-81383142D01*
X161468000Y-81287904D01*
X161515619Y-81240285D01*
X161610857Y-81192666D01*
X161753714Y-81192666D01*
X161848952Y-81240285D01*
X161896571Y-81287904D01*
X161944190Y-81383142D01*
X161944190Y-81764095D01*
X161420380Y-80859333D02*
X161420380Y-80240285D01*
X161801333Y-80573619D01*
X161801333Y-80430761D01*
X161848952Y-80335523D01*
X161896571Y-80287904D01*
X161991809Y-80240285D01*
X162229904Y-80240285D01*
X162325142Y-80287904D01*
X162372761Y-80335523D01*
X162420380Y-80430761D01*
X162420380Y-80716476D01*
X162372761Y-80811714D01*
X162325142Y-80859333D01*
%TO.C,R2*%
X176390380Y-81192666D02*
X175914190Y-81526000D01*
X176390380Y-81764095D02*
X175390380Y-81764095D01*
X175390380Y-81383142D01*
X175438000Y-81287904D01*
X175485619Y-81240285D01*
X175580857Y-81192666D01*
X175723714Y-81192666D01*
X175818952Y-81240285D01*
X175866571Y-81287904D01*
X175914190Y-81383142D01*
X175914190Y-81764095D01*
X175485619Y-80811714D02*
X175438000Y-80764095D01*
X175390380Y-80668857D01*
X175390380Y-80430761D01*
X175438000Y-80335523D01*
X175485619Y-80287904D01*
X175580857Y-80240285D01*
X175676095Y-80240285D01*
X175818952Y-80287904D01*
X176390380Y-80859333D01*
X176390380Y-80240285D01*
%TO.C,R1*%
X190106380Y-81192666D02*
X189630190Y-81526000D01*
X190106380Y-81764095D02*
X189106380Y-81764095D01*
X189106380Y-81383142D01*
X189154000Y-81287904D01*
X189201619Y-81240285D01*
X189296857Y-81192666D01*
X189439714Y-81192666D01*
X189534952Y-81240285D01*
X189582571Y-81287904D01*
X189630190Y-81383142D01*
X189630190Y-81764095D01*
X190106380Y-80240285D02*
X190106380Y-80811714D01*
X190106380Y-80526000D02*
X189106380Y-80526000D01*
X189249238Y-80621238D01*
X189344476Y-80716476D01*
X189392095Y-80811714D01*
%TO.C,J1*%
X200415380Y-84246833D02*
X201129666Y-84246833D01*
X201272523Y-84294452D01*
X201367761Y-84389690D01*
X201415380Y-84532547D01*
X201415380Y-84627785D01*
X201415380Y-83246833D02*
X201415380Y-83818261D01*
X201415380Y-83532547D02*
X200415380Y-83532547D01*
X200558238Y-83627785D01*
X200653476Y-83723023D01*
X200701095Y-83818261D01*
%TO.C,J2*%
X147748666Y-91610380D02*
X147748666Y-92324666D01*
X147701047Y-92467523D01*
X147605809Y-92562761D01*
X147462952Y-92610380D01*
X147367714Y-92610380D01*
X148177238Y-91705619D02*
X148224857Y-91658000D01*
X148320095Y-91610380D01*
X148558190Y-91610380D01*
X148653428Y-91658000D01*
X148701047Y-91705619D01*
X148748666Y-91800857D01*
X148748666Y-91896095D01*
X148701047Y-92038952D01*
X148129619Y-92610380D01*
X148748666Y-92610380D01*
%TO.C,J3*%
X200112380Y-99647333D02*
X200826666Y-99647333D01*
X200969523Y-99694952D01*
X201064761Y-99790190D01*
X201112380Y-99933047D01*
X201112380Y-100028285D01*
X200112380Y-99266380D02*
X200112380Y-98647333D01*
X200493333Y-98980666D01*
X200493333Y-98837809D01*
X200540952Y-98742571D01*
X200588571Y-98694952D01*
X200683809Y-98647333D01*
X200921904Y-98647333D01*
X201017142Y-98694952D01*
X201064761Y-98742571D01*
X201112380Y-98837809D01*
X201112380Y-99123523D01*
X201064761Y-99218761D01*
X201017142Y-99266380D01*
%TO.C,Q1*%
X182713619Y-81375238D02*
X182666000Y-81470476D01*
X182570761Y-81565714D01*
X182427904Y-81708571D01*
X182380285Y-81803809D01*
X182380285Y-81899047D01*
X182618380Y-81851428D02*
X182570761Y-81946666D01*
X182475523Y-82041904D01*
X182285047Y-82089523D01*
X181951714Y-82089523D01*
X181761238Y-82041904D01*
X181666000Y-81946666D01*
X181618380Y-81851428D01*
X181618380Y-81660952D01*
X181666000Y-81565714D01*
X181761238Y-81470476D01*
X181951714Y-81422857D01*
X182285047Y-81422857D01*
X182475523Y-81470476D01*
X182570761Y-81565714D01*
X182618380Y-81660952D01*
X182618380Y-81851428D01*
X182618380Y-80470476D02*
X182618380Y-81041904D01*
X182618380Y-80756190D02*
X181618380Y-80756190D01*
X181761238Y-80851428D01*
X181856476Y-80946666D01*
X181904095Y-81041904D01*
%TO.C,Q2*%
X168997619Y-81375238D02*
X168950000Y-81470476D01*
X168854761Y-81565714D01*
X168711904Y-81708571D01*
X168664285Y-81803809D01*
X168664285Y-81899047D01*
X168902380Y-81851428D02*
X168854761Y-81946666D01*
X168759523Y-82041904D01*
X168569047Y-82089523D01*
X168235714Y-82089523D01*
X168045238Y-82041904D01*
X167950000Y-81946666D01*
X167902380Y-81851428D01*
X167902380Y-81660952D01*
X167950000Y-81565714D01*
X168045238Y-81470476D01*
X168235714Y-81422857D01*
X168569047Y-81422857D01*
X168759523Y-81470476D01*
X168854761Y-81565714D01*
X168902380Y-81660952D01*
X168902380Y-81851428D01*
X167997619Y-81041904D02*
X167950000Y-80994285D01*
X167902380Y-80899047D01*
X167902380Y-80660952D01*
X167950000Y-80565714D01*
X167997619Y-80518095D01*
X168092857Y-80470476D01*
X168188095Y-80470476D01*
X168330952Y-80518095D01*
X168902380Y-81089523D01*
X168902380Y-80470476D01*
%TO.C,Q3*%
X155281619Y-81375238D02*
X155234000Y-81470476D01*
X155138761Y-81565714D01*
X154995904Y-81708571D01*
X154948285Y-81803809D01*
X154948285Y-81899047D01*
X155186380Y-81851428D02*
X155138761Y-81946666D01*
X155043523Y-82041904D01*
X154853047Y-82089523D01*
X154519714Y-82089523D01*
X154329238Y-82041904D01*
X154234000Y-81946666D01*
X154186380Y-81851428D01*
X154186380Y-81660952D01*
X154234000Y-81565714D01*
X154329238Y-81470476D01*
X154519714Y-81422857D01*
X154853047Y-81422857D01*
X155043523Y-81470476D01*
X155138761Y-81565714D01*
X155186380Y-81660952D01*
X155186380Y-81851428D01*
X154186380Y-81089523D02*
X154186380Y-80470476D01*
X154567333Y-80803809D01*
X154567333Y-80660952D01*
X154614952Y-80565714D01*
X154662571Y-80518095D01*
X154757809Y-80470476D01*
X154995904Y-80470476D01*
X155091142Y-80518095D01*
X155138761Y-80565714D01*
X155186380Y-80660952D01*
X155186380Y-80946666D01*
X155138761Y-81041904D01*
X155091142Y-81089523D01*
%TO.C,U1*%
X194436113Y-92322544D02*
X193863693Y-92894964D01*
X193830021Y-92995979D01*
X193830021Y-93063323D01*
X193863693Y-93164338D01*
X193998380Y-93299025D01*
X194099395Y-93332697D01*
X194166739Y-93332697D01*
X194267754Y-93299025D01*
X194840174Y-92726605D01*
X194840174Y-94140819D02*
X194436113Y-93736758D01*
X194638143Y-93938788D02*
X195345250Y-93231682D01*
X195176891Y-93265353D01*
X195042204Y-93265353D01*
X194941189Y-93231682D01*
%TO.C,U3*%
X163956113Y-92322544D02*
X163383693Y-92894964D01*
X163350021Y-92995979D01*
X163350021Y-93063323D01*
X163383693Y-93164338D01*
X163518380Y-93299025D01*
X163619395Y-93332697D01*
X163686739Y-93332697D01*
X163787754Y-93299025D01*
X164360174Y-92726605D01*
X164629548Y-92995979D02*
X165067280Y-93433712D01*
X164562204Y-93467384D01*
X164663219Y-93568399D01*
X164696891Y-93669414D01*
X164696891Y-93736758D01*
X164663219Y-93837773D01*
X164494861Y-94006132D01*
X164393845Y-94039804D01*
X164326502Y-94039804D01*
X164225487Y-94006132D01*
X164023456Y-93804101D01*
X163989784Y-93703086D01*
X163989784Y-93635743D01*
%TO.C,R4*%
X145910380Y-81192666D02*
X145434190Y-81526000D01*
X145910380Y-81764095D02*
X144910380Y-81764095D01*
X144910380Y-81383142D01*
X144958000Y-81287904D01*
X145005619Y-81240285D01*
X145100857Y-81192666D01*
X145243714Y-81192666D01*
X145338952Y-81240285D01*
X145386571Y-81287904D01*
X145434190Y-81383142D01*
X145434190Y-81764095D01*
X145243714Y-80335523D02*
X145910380Y-80335523D01*
X144862761Y-80573619D02*
X145577047Y-80811714D01*
X145577047Y-80192666D01*
%TO.C,D1*%
X147851904Y-87786380D02*
X147851904Y-86786380D01*
X148090000Y-86786380D01*
X148232857Y-86834000D01*
X148328095Y-86929238D01*
X148375714Y-87024476D01*
X148423333Y-87214952D01*
X148423333Y-87357809D01*
X148375714Y-87548285D01*
X148328095Y-87643523D01*
X148232857Y-87738761D01*
X148090000Y-87786380D01*
X147851904Y-87786380D01*
X149375714Y-87786380D02*
X148804285Y-87786380D01*
X149090000Y-87786380D02*
X149090000Y-86786380D01*
X148994761Y-86929238D01*
X148899523Y-87024476D01*
X148804285Y-87072095D01*
%TO.C,H1*%
X151828595Y-106116380D02*
X151828595Y-105116380D01*
X151828595Y-105592571D02*
X152400023Y-105592571D01*
X152400023Y-106116380D02*
X152400023Y-105116380D01*
X153400023Y-106116380D02*
X152828595Y-106116380D01*
X153114309Y-106116380D02*
X153114309Y-105116380D01*
X153019071Y-105259238D01*
X152923833Y-105354476D01*
X152828595Y-105402095D01*
%TO.C,H2*%
X196596095Y-71628380D02*
X196596095Y-70628380D01*
X196596095Y-71104571D02*
X197167523Y-71104571D01*
X197167523Y-71628380D02*
X197167523Y-70628380D01*
X197596095Y-70723619D02*
X197643714Y-70676000D01*
X197738952Y-70628380D01*
X197977047Y-70628380D01*
X198072285Y-70676000D01*
X198119904Y-70723619D01*
X198167523Y-70818857D01*
X198167523Y-70914095D01*
X198119904Y-71056952D01*
X197548476Y-71628380D01*
X198167523Y-71628380D01*
%TO.C,H3*%
X151892095Y-71564880D02*
X151892095Y-70564880D01*
X151892095Y-71041071D02*
X152463523Y-71041071D01*
X152463523Y-71564880D02*
X152463523Y-70564880D01*
X152844476Y-70564880D02*
X153463523Y-70564880D01*
X153130190Y-70945833D01*
X153273047Y-70945833D01*
X153368285Y-70993452D01*
X153415904Y-71041071D01*
X153463523Y-71136309D01*
X153463523Y-71374404D01*
X153415904Y-71469642D01*
X153368285Y-71517261D01*
X153273047Y-71564880D01*
X152987333Y-71564880D01*
X152892095Y-71517261D01*
X152844476Y-71469642D01*
%TO.C,H4*%
X196786595Y-102806880D02*
X196786595Y-101806880D01*
X196786595Y-102283071D02*
X197358023Y-102283071D01*
X197358023Y-102806880D02*
X197358023Y-101806880D01*
X198262785Y-102140214D02*
X198262785Y-102806880D01*
X198024690Y-101759261D02*
X197786595Y-102473547D01*
X198405642Y-102473547D01*
%TD*%
M02*
