%TF.GenerationSoftware,KiCad,Pcbnew,5.1.6-c6e7f7d~87~ubuntu18.04.1*%
%TF.CreationDate,2021-06-08T22:03:35+01:00*%
%TF.ProjectId,hp_led_driver,68705f6c-6564-45f6-9472-697665722e6b,rev?*%
%TF.SameCoordinates,Original*%
%TF.FileFunction,Soldermask,Top*%
%TF.FilePolarity,Negative*%
%FSLAX46Y46*%
G04 Gerber Fmt 4.6, Leading zero omitted, Abs format (unit mm)*
G04 Created by KiCad (PCBNEW 5.1.6-c6e7f7d~87~ubuntu18.04.1) date 2021-06-08 22:03:35*
%MOMM*%
%LPD*%
G01*
G04 APERTURE LIST*
%ADD10C,1.700000*%
%ADD11C,0.100000*%
%ADD12O,1.700000X1.700000*%
%ADD13R,3.100000X3.100000*%
%ADD14C,3.100000*%
%ADD15R,1.800000X1.800000*%
%ADD16O,1.800000X1.800000*%
%ADD17R,2.100000X2.005000*%
%ADD18O,2.100000X2.005000*%
%ADD19C,5.100000*%
G04 APERTURE END LIST*
D10*
%TO.C,C1*%
X199390000Y-96774000D03*
X199390000Y-91774000D03*
%TD*%
%TO.C,U2*%
G36*
G01*
X179793113Y-96989113D02*
X179793113Y-96989113D01*
G75*
G02*
X180995195Y-96989113I601041J-601041D01*
G01*
X180995195Y-96989113D01*
G75*
G02*
X180995195Y-98191195I-601041J-601041D01*
G01*
X180995195Y-98191195D01*
G75*
G02*
X179793113Y-98191195I-601041J601041D01*
G01*
X179793113Y-98191195D01*
G75*
G02*
X179793113Y-96989113I601041J601041D01*
G01*
G37*
G36*
G01*
X169016805Y-96989113D02*
X169016805Y-96989113D01*
G75*
G02*
X170218887Y-96989113I601041J-601041D01*
G01*
X170218887Y-96989113D01*
G75*
G02*
X170218887Y-98191195I-601041J-601041D01*
G01*
X170218887Y-98191195D01*
G75*
G02*
X169016805Y-98191195I-601041J601041D01*
G01*
X169016805Y-98191195D01*
G75*
G02*
X169016805Y-96989113I601041J601041D01*
G01*
G37*
G36*
G01*
X177997061Y-98785164D02*
X177997061Y-98785164D01*
G75*
G02*
X179199143Y-98785164I601041J-601041D01*
G01*
X179199143Y-98785164D01*
G75*
G02*
X179199143Y-99987246I-601041J-601041D01*
G01*
X179199143Y-99987246D01*
G75*
G02*
X177997061Y-99987246I-601041J601041D01*
G01*
X177997061Y-99987246D01*
G75*
G02*
X177997061Y-98785164I601041J601041D01*
G01*
G37*
G36*
G01*
X170812857Y-95193061D02*
X170812857Y-95193061D01*
G75*
G02*
X172014939Y-95193061I601041J-601041D01*
G01*
X172014939Y-95193061D01*
G75*
G02*
X172014939Y-96395143I-601041J-601041D01*
G01*
X172014939Y-96395143D01*
G75*
G02*
X170812857Y-96395143I-601041J601041D01*
G01*
X170812857Y-96395143D01*
G75*
G02*
X170812857Y-95193061I601041J601041D01*
G01*
G37*
G36*
G01*
X176201010Y-100581215D02*
X176201010Y-100581215D01*
G75*
G02*
X177403092Y-100581215I601041J-601041D01*
G01*
X177403092Y-100581215D01*
G75*
G02*
X177403092Y-101783297I-601041J-601041D01*
G01*
X177403092Y-101783297D01*
G75*
G02*
X176201010Y-101783297I-601041J601041D01*
G01*
X176201010Y-101783297D01*
G75*
G02*
X176201010Y-100581215I601041J601041D01*
G01*
G37*
G36*
G01*
X172608908Y-93397010D02*
X172608908Y-93397010D01*
G75*
G02*
X173810990Y-93397010I601041J-601041D01*
G01*
X173810990Y-93397010D01*
G75*
G02*
X173810990Y-94599092I-601041J-601041D01*
G01*
X173810990Y-94599092D01*
G75*
G02*
X172608908Y-94599092I-601041J601041D01*
G01*
X172608908Y-94599092D01*
G75*
G02*
X172608908Y-93397010I601041J601041D01*
G01*
G37*
G36*
G01*
X174404959Y-102377266D02*
X174404959Y-102377266D01*
G75*
G02*
X175607041Y-102377266I601041J-601041D01*
G01*
X175607041Y-102377266D01*
G75*
G02*
X175607041Y-103579348I-601041J-601041D01*
G01*
X175607041Y-103579348D01*
G75*
G02*
X174404959Y-103579348I-601041J601041D01*
G01*
X174404959Y-103579348D01*
G75*
G02*
X174404959Y-102377266I601041J601041D01*
G01*
G37*
D11*
G36*
X173803918Y-92202000D02*
G01*
X175006000Y-90999918D01*
X176208082Y-92202000D01*
X175006000Y-93404082D01*
X173803918Y-92202000D01*
G37*
%TD*%
D12*
%TO.C,R3*%
X161544000Y-77216000D03*
D10*
X161544000Y-84836000D03*
%TD*%
D12*
%TO.C,R2*%
X176784000Y-77216000D03*
D10*
X176784000Y-84836000D03*
%TD*%
D12*
%TO.C,R1*%
X192024000Y-77216000D03*
D10*
X192024000Y-84836000D03*
%TD*%
D13*
%TO.C,J1*%
X205613000Y-88963500D03*
D14*
X205613000Y-83883500D03*
X205613000Y-78803500D03*
%TD*%
D15*
%TO.C,J2*%
X148082000Y-94488000D03*
D16*
X148082000Y-97028000D03*
X148082000Y-99568000D03*
X148082000Y-102108000D03*
%TD*%
D13*
%TO.C,J3*%
X205740000Y-101854000D03*
D14*
X205740000Y-96774000D03*
%TD*%
D17*
%TO.C,Q1*%
X186436000Y-83820000D03*
D18*
X186436000Y-81280000D03*
X186436000Y-78740000D03*
%TD*%
%TO.C,Q2*%
X171196000Y-78740000D03*
X171196000Y-81280000D03*
D17*
X171196000Y-83820000D03*
%TD*%
%TO.C,Q3*%
X155956000Y-83820000D03*
D18*
X155956000Y-81280000D03*
X155956000Y-78740000D03*
%TD*%
D11*
%TO.C,U1*%
G36*
X189043918Y-92202000D02*
G01*
X190246000Y-90999918D01*
X191448082Y-92202000D01*
X190246000Y-93404082D01*
X189043918Y-92202000D01*
G37*
G36*
G01*
X189644959Y-102377266D02*
X189644959Y-102377266D01*
G75*
G02*
X190847041Y-102377266I601041J-601041D01*
G01*
X190847041Y-102377266D01*
G75*
G02*
X190847041Y-103579348I-601041J-601041D01*
G01*
X190847041Y-103579348D01*
G75*
G02*
X189644959Y-103579348I-601041J601041D01*
G01*
X189644959Y-103579348D01*
G75*
G02*
X189644959Y-102377266I601041J601041D01*
G01*
G37*
G36*
G01*
X187848908Y-93397010D02*
X187848908Y-93397010D01*
G75*
G02*
X189050990Y-93397010I601041J-601041D01*
G01*
X189050990Y-93397010D01*
G75*
G02*
X189050990Y-94599092I-601041J-601041D01*
G01*
X189050990Y-94599092D01*
G75*
G02*
X187848908Y-94599092I-601041J601041D01*
G01*
X187848908Y-94599092D01*
G75*
G02*
X187848908Y-93397010I601041J601041D01*
G01*
G37*
G36*
G01*
X191441010Y-100581215D02*
X191441010Y-100581215D01*
G75*
G02*
X192643092Y-100581215I601041J-601041D01*
G01*
X192643092Y-100581215D01*
G75*
G02*
X192643092Y-101783297I-601041J-601041D01*
G01*
X192643092Y-101783297D01*
G75*
G02*
X191441010Y-101783297I-601041J601041D01*
G01*
X191441010Y-101783297D01*
G75*
G02*
X191441010Y-100581215I601041J601041D01*
G01*
G37*
G36*
G01*
X186052857Y-95193061D02*
X186052857Y-95193061D01*
G75*
G02*
X187254939Y-95193061I601041J-601041D01*
G01*
X187254939Y-95193061D01*
G75*
G02*
X187254939Y-96395143I-601041J-601041D01*
G01*
X187254939Y-96395143D01*
G75*
G02*
X186052857Y-96395143I-601041J601041D01*
G01*
X186052857Y-96395143D01*
G75*
G02*
X186052857Y-95193061I601041J601041D01*
G01*
G37*
G36*
G01*
X193237061Y-98785164D02*
X193237061Y-98785164D01*
G75*
G02*
X194439143Y-98785164I601041J-601041D01*
G01*
X194439143Y-98785164D01*
G75*
G02*
X194439143Y-99987246I-601041J-601041D01*
G01*
X194439143Y-99987246D01*
G75*
G02*
X193237061Y-99987246I-601041J601041D01*
G01*
X193237061Y-99987246D01*
G75*
G02*
X193237061Y-98785164I601041J601041D01*
G01*
G37*
G36*
G01*
X184256805Y-96989113D02*
X184256805Y-96989113D01*
G75*
G02*
X185458887Y-96989113I601041J-601041D01*
G01*
X185458887Y-96989113D01*
G75*
G02*
X185458887Y-98191195I-601041J-601041D01*
G01*
X185458887Y-98191195D01*
G75*
G02*
X184256805Y-98191195I-601041J601041D01*
G01*
X184256805Y-98191195D01*
G75*
G02*
X184256805Y-96989113I601041J601041D01*
G01*
G37*
G36*
G01*
X195033113Y-96989113D02*
X195033113Y-96989113D01*
G75*
G02*
X196235195Y-96989113I601041J-601041D01*
G01*
X196235195Y-96989113D01*
G75*
G02*
X196235195Y-98191195I-601041J-601041D01*
G01*
X196235195Y-98191195D01*
G75*
G02*
X195033113Y-98191195I-601041J601041D01*
G01*
X195033113Y-98191195D01*
G75*
G02*
X195033113Y-96989113I601041J601041D01*
G01*
G37*
%TD*%
%TO.C,U3*%
G36*
X158563918Y-92202000D02*
G01*
X159766000Y-90999918D01*
X160968082Y-92202000D01*
X159766000Y-93404082D01*
X158563918Y-92202000D01*
G37*
G36*
G01*
X159164959Y-102377266D02*
X159164959Y-102377266D01*
G75*
G02*
X160367041Y-102377266I601041J-601041D01*
G01*
X160367041Y-102377266D01*
G75*
G02*
X160367041Y-103579348I-601041J-601041D01*
G01*
X160367041Y-103579348D01*
G75*
G02*
X159164959Y-103579348I-601041J601041D01*
G01*
X159164959Y-103579348D01*
G75*
G02*
X159164959Y-102377266I601041J601041D01*
G01*
G37*
G36*
G01*
X157368908Y-93397010D02*
X157368908Y-93397010D01*
G75*
G02*
X158570990Y-93397010I601041J-601041D01*
G01*
X158570990Y-93397010D01*
G75*
G02*
X158570990Y-94599092I-601041J-601041D01*
G01*
X158570990Y-94599092D01*
G75*
G02*
X157368908Y-94599092I-601041J601041D01*
G01*
X157368908Y-94599092D01*
G75*
G02*
X157368908Y-93397010I601041J601041D01*
G01*
G37*
G36*
G01*
X160961010Y-100581215D02*
X160961010Y-100581215D01*
G75*
G02*
X162163092Y-100581215I601041J-601041D01*
G01*
X162163092Y-100581215D01*
G75*
G02*
X162163092Y-101783297I-601041J-601041D01*
G01*
X162163092Y-101783297D01*
G75*
G02*
X160961010Y-101783297I-601041J601041D01*
G01*
X160961010Y-101783297D01*
G75*
G02*
X160961010Y-100581215I601041J601041D01*
G01*
G37*
G36*
G01*
X155572857Y-95193061D02*
X155572857Y-95193061D01*
G75*
G02*
X156774939Y-95193061I601041J-601041D01*
G01*
X156774939Y-95193061D01*
G75*
G02*
X156774939Y-96395143I-601041J-601041D01*
G01*
X156774939Y-96395143D01*
G75*
G02*
X155572857Y-96395143I-601041J601041D01*
G01*
X155572857Y-96395143D01*
G75*
G02*
X155572857Y-95193061I601041J601041D01*
G01*
G37*
G36*
G01*
X162757061Y-98785164D02*
X162757061Y-98785164D01*
G75*
G02*
X163959143Y-98785164I601041J-601041D01*
G01*
X163959143Y-98785164D01*
G75*
G02*
X163959143Y-99987246I-601041J-601041D01*
G01*
X163959143Y-99987246D01*
G75*
G02*
X162757061Y-99987246I-601041J601041D01*
G01*
X162757061Y-99987246D01*
G75*
G02*
X162757061Y-98785164I601041J601041D01*
G01*
G37*
G36*
G01*
X153776805Y-96989113D02*
X153776805Y-96989113D01*
G75*
G02*
X154978887Y-96989113I601041J-601041D01*
G01*
X154978887Y-96989113D01*
G75*
G02*
X154978887Y-98191195I-601041J-601041D01*
G01*
X154978887Y-98191195D01*
G75*
G02*
X153776805Y-98191195I-601041J601041D01*
G01*
X153776805Y-98191195D01*
G75*
G02*
X153776805Y-96989113I601041J601041D01*
G01*
G37*
G36*
G01*
X164553113Y-96989113D02*
X164553113Y-96989113D01*
G75*
G02*
X165755195Y-96989113I601041J-601041D01*
G01*
X165755195Y-96989113D01*
G75*
G02*
X165755195Y-98191195I-601041J-601041D01*
G01*
X165755195Y-98191195D01*
G75*
G02*
X164553113Y-98191195I-601041J601041D01*
G01*
X164553113Y-98191195D01*
G75*
G02*
X164553113Y-96989113I601041J601041D01*
G01*
G37*
%TD*%
D10*
%TO.C,R4*%
X147828000Y-84836000D03*
D12*
X147828000Y-77216000D03*
%TD*%
%TO.C,D1*%
G36*
G01*
X146515000Y-89809000D02*
X146515000Y-88499000D01*
G75*
G02*
X146785000Y-88229000I270000J0D01*
G01*
X147595000Y-88229000D01*
G75*
G02*
X147865000Y-88499000I0J-270000D01*
G01*
X147865000Y-89809000D01*
G75*
G02*
X147595000Y-90079000I-270000J0D01*
G01*
X146785000Y-90079000D01*
G75*
G02*
X146515000Y-89809000I0J270000D01*
G01*
G37*
G36*
G01*
X149315000Y-89809000D02*
X149315000Y-88499000D01*
G75*
G02*
X149585000Y-88229000I270000J0D01*
G01*
X150395000Y-88229000D01*
G75*
G02*
X150665000Y-88499000I0J-270000D01*
G01*
X150665000Y-89809000D01*
G75*
G02*
X150395000Y-90079000I-270000J0D01*
G01*
X149585000Y-90079000D01*
G75*
G02*
X149315000Y-89809000I0J270000D01*
G01*
G37*
%TD*%
D19*
%TO.C,H1*%
X152590500Y-105791000D03*
%TD*%
%TO.C,H2*%
X197358000Y-74676000D03*
%TD*%
%TO.C,H3*%
X152654000Y-74612500D03*
%TD*%
%TO.C,H4*%
X197548500Y-105854500D03*
%TD*%
M02*
