%TF.GenerationSoftware,KiCad,Pcbnew,5.1.6-c6e7f7d~87~ubuntu18.04.1*%
%TF.CreationDate,2021-06-08T22:03:35+01:00*%
%TF.ProjectId,hp_led_driver,68705f6c-6564-45f6-9472-697665722e6b,rev?*%
%TF.SameCoordinates,Original*%
%TF.FileFunction,Legend,Top*%
%TF.FilePolarity,Positive*%
%FSLAX46Y46*%
G04 Gerber Fmt 4.6, Leading zero omitted, Abs format (unit mm)*
G04 Created by KiCad (PCBNEW 5.1.6-c6e7f7d~87~ubuntu18.04.1) date 2021-06-08 22:03:35*
%MOMM*%
%LPD*%
G01*
G04 APERTURE LIST*
%ADD10C,0.250000*%
%ADD11C,0.120000*%
%ADD12C,0.150000*%
G04 APERTURE END LIST*
D10*
X200262476Y-89352380D02*
X200595809Y-88876190D01*
X200833904Y-89352380D02*
X200833904Y-88352380D01*
X200452952Y-88352380D01*
X200357714Y-88400000D01*
X200310095Y-88447619D01*
X200262476Y-88542857D01*
X200262476Y-88685714D01*
X200310095Y-88780952D01*
X200357714Y-88828571D01*
X200452952Y-88876190D01*
X200833904Y-88876190D01*
X199310095Y-88400000D02*
X199405333Y-88352380D01*
X199548190Y-88352380D01*
X199691047Y-88400000D01*
X199786285Y-88495238D01*
X199833904Y-88590476D01*
X199881523Y-88780952D01*
X199881523Y-88923809D01*
X199833904Y-89114285D01*
X199786285Y-89209523D01*
X199691047Y-89304761D01*
X199548190Y-89352380D01*
X199452952Y-89352380D01*
X199310095Y-89304761D01*
X199262476Y-89257142D01*
X199262476Y-88923809D01*
X199452952Y-88923809D01*
X198500571Y-88828571D02*
X198357714Y-88876190D01*
X198310095Y-88923809D01*
X198262476Y-89019047D01*
X198262476Y-89161904D01*
X198310095Y-89257142D01*
X198357714Y-89304761D01*
X198452952Y-89352380D01*
X198833904Y-89352380D01*
X198833904Y-88352380D01*
X198500571Y-88352380D01*
X198405333Y-88400000D01*
X198357714Y-88447619D01*
X198310095Y-88542857D01*
X198310095Y-88638095D01*
X198357714Y-88733333D01*
X198405333Y-88780952D01*
X198500571Y-88828571D01*
X198833904Y-88828571D01*
X197072000Y-89352380D02*
X197072000Y-88352380D01*
X196833904Y-88352380D01*
X196691047Y-88400000D01*
X196595809Y-88495238D01*
X196548190Y-88590476D01*
X196500571Y-88780952D01*
X196500571Y-88923809D01*
X196548190Y-89114285D01*
X196595809Y-89209523D01*
X196691047Y-89304761D01*
X196833904Y-89352380D01*
X197072000Y-89352380D01*
X196072000Y-89352380D02*
X196072000Y-88685714D01*
X196072000Y-88876190D02*
X196024380Y-88780952D01*
X195976761Y-88733333D01*
X195881523Y-88685714D01*
X195786285Y-88685714D01*
X195452952Y-89352380D02*
X195452952Y-88685714D01*
X195452952Y-88352380D02*
X195500571Y-88400000D01*
X195452952Y-88447619D01*
X195405333Y-88400000D01*
X195452952Y-88352380D01*
X195452952Y-88447619D01*
X195072000Y-88685714D02*
X194833904Y-89352380D01*
X194595809Y-88685714D01*
X193833904Y-89304761D02*
X193929142Y-89352380D01*
X194119619Y-89352380D01*
X194214857Y-89304761D01*
X194262476Y-89209523D01*
X194262476Y-88828571D01*
X194214857Y-88733333D01*
X194119619Y-88685714D01*
X193929142Y-88685714D01*
X193833904Y-88733333D01*
X193786285Y-88828571D01*
X193786285Y-88923809D01*
X194262476Y-89019047D01*
X193357714Y-89352380D02*
X193357714Y-88685714D01*
X193357714Y-88876190D02*
X193310095Y-88780952D01*
X193262476Y-88733333D01*
X193167238Y-88685714D01*
X193072000Y-88685714D01*
X192072000Y-88685714D02*
X191833904Y-89352380D01*
X191595809Y-88685714D01*
X190691047Y-89352380D02*
X191262476Y-89352380D01*
X190976761Y-89352380D02*
X190976761Y-88352380D01*
X191072000Y-88495238D01*
X191167238Y-88590476D01*
X191262476Y-88638095D01*
X190262476Y-89257142D02*
X190214857Y-89304761D01*
X190262476Y-89352380D01*
X190310095Y-89304761D01*
X190262476Y-89257142D01*
X190262476Y-89352380D01*
X189595809Y-88352380D02*
X189500571Y-88352380D01*
X189405333Y-88400000D01*
X189357714Y-88447619D01*
X189310095Y-88542857D01*
X189262476Y-88733333D01*
X189262476Y-88971428D01*
X189310095Y-89161904D01*
X189357714Y-89257142D01*
X189405333Y-89304761D01*
X189500571Y-89352380D01*
X189595809Y-89352380D01*
X189691047Y-89304761D01*
X189738666Y-89257142D01*
X189786285Y-89161904D01*
X189833904Y-88971428D01*
X189833904Y-88733333D01*
X189786285Y-88542857D01*
X189738666Y-88447619D01*
X189691047Y-88400000D01*
X189595809Y-88352380D01*
D11*
%TO.C,C1*%
X198020000Y-96744000D02*
X198020000Y-91804000D01*
X200760000Y-96744000D02*
X200760000Y-91804000D01*
X198020000Y-96744000D02*
X198335000Y-96744000D01*
X200445000Y-96744000D02*
X200760000Y-96744000D01*
X198020000Y-91804000D02*
X198335000Y-91804000D01*
X200445000Y-91804000D02*
X200760000Y-91804000D01*
%TO.C,U2*%
X177933422Y-93248518D02*
X176766696Y-92081792D01*
X176766696Y-92081792D02*
X169497638Y-99350850D01*
X169497638Y-99350850D02*
X173245304Y-103098515D01*
X173245304Y-103098515D02*
X180514362Y-95829458D01*
X180514362Y-95829458D02*
X179347636Y-94662732D01*
X179347636Y-94662732D02*
G75*
G02*
X177933422Y-93248518I-707107J707107D01*
G01*
%TO.C,R3*%
X162914000Y-77756000D02*
X162584000Y-77756000D01*
X162914000Y-84296000D02*
X162914000Y-77756000D01*
X162584000Y-84296000D02*
X162914000Y-84296000D01*
X160174000Y-77756000D02*
X160504000Y-77756000D01*
X160174000Y-84296000D02*
X160174000Y-77756000D01*
X160504000Y-84296000D02*
X160174000Y-84296000D01*
%TO.C,R2*%
X178154000Y-77756000D02*
X177824000Y-77756000D01*
X178154000Y-84296000D02*
X178154000Y-77756000D01*
X177824000Y-84296000D02*
X178154000Y-84296000D01*
X175414000Y-77756000D02*
X175744000Y-77756000D01*
X175414000Y-84296000D02*
X175414000Y-77756000D01*
X175744000Y-84296000D02*
X175414000Y-84296000D01*
%TO.C,R1*%
X193394000Y-77756000D02*
X193064000Y-77756000D01*
X193394000Y-84296000D02*
X193394000Y-77756000D01*
X193064000Y-84296000D02*
X193394000Y-84296000D01*
X190654000Y-77756000D02*
X190984000Y-77756000D01*
X190654000Y-84296000D02*
X190654000Y-77756000D01*
X190984000Y-84296000D02*
X190654000Y-84296000D01*
%TO.C,J1*%
X209423000Y-91503500D02*
X201803000Y-91503500D01*
X209423000Y-76263500D02*
X201803000Y-76263500D01*
X208153000Y-91503500D02*
X208153000Y-76263500D01*
X201803000Y-91503500D02*
X201803000Y-76263500D01*
X209423000Y-91503500D02*
X209423000Y-76263500D01*
%TO.C,J2*%
X146752000Y-103438000D02*
X149412000Y-103438000D01*
X146752000Y-95758000D02*
X146752000Y-103438000D01*
X149412000Y-95758000D02*
X149412000Y-103438000D01*
X146752000Y-95758000D02*
X149412000Y-95758000D01*
X146752000Y-94488000D02*
X146752000Y-93158000D01*
X146752000Y-93158000D02*
X148082000Y-93158000D01*
%TO.C,J3*%
X208280000Y-94234000D02*
X208280000Y-104394000D01*
X209550000Y-94234000D02*
X201930000Y-94234000D01*
X201930000Y-94234000D02*
X201930000Y-104394000D01*
X201930000Y-104394000D02*
X209550000Y-104394000D01*
X209550000Y-104394000D02*
X209550000Y-94234000D01*
%TO.C,Q1*%
X183166000Y-86400000D02*
X183166000Y-76160000D01*
X187807000Y-86400000D02*
X187807000Y-76160000D01*
X183166000Y-86400000D02*
X187807000Y-86400000D01*
X183166000Y-76160000D02*
X187807000Y-76160000D01*
X184676000Y-86400000D02*
X184676000Y-76160000D01*
X183166000Y-83130000D02*
X184676000Y-83130000D01*
X183166000Y-79429000D02*
X184676000Y-79429000D01*
%TO.C,Q2*%
X167926000Y-79429000D02*
X169436000Y-79429000D01*
X167926000Y-83130000D02*
X169436000Y-83130000D01*
X169436000Y-86400000D02*
X169436000Y-76160000D01*
X167926000Y-76160000D02*
X172567000Y-76160000D01*
X167926000Y-86400000D02*
X172567000Y-86400000D01*
X172567000Y-86400000D02*
X172567000Y-76160000D01*
X167926000Y-86400000D02*
X167926000Y-76160000D01*
%TO.C,Q3*%
X152686000Y-86400000D02*
X152686000Y-76160000D01*
X157327000Y-86400000D02*
X157327000Y-76160000D01*
X152686000Y-86400000D02*
X157327000Y-86400000D01*
X152686000Y-76160000D02*
X157327000Y-76160000D01*
X154196000Y-86400000D02*
X154196000Y-76160000D01*
X152686000Y-83130000D02*
X154196000Y-83130000D01*
X152686000Y-79429000D02*
X154196000Y-79429000D01*
%TO.C,U1*%
X195754362Y-95829458D02*
X194587636Y-94662732D01*
X188485304Y-103098515D02*
X195754362Y-95829458D01*
X184737638Y-99350850D02*
X188485304Y-103098515D01*
X192006696Y-92081792D02*
X184737638Y-99350850D01*
X193173422Y-93248518D02*
X192006696Y-92081792D01*
X194587636Y-94662732D02*
G75*
G02*
X193173422Y-93248518I-707107J707107D01*
G01*
%TO.C,U3*%
X165274362Y-95829458D02*
X164107636Y-94662732D01*
X158005304Y-103098515D02*
X165274362Y-95829458D01*
X154257638Y-99350850D02*
X158005304Y-103098515D01*
X161526696Y-92081792D02*
X154257638Y-99350850D01*
X162693422Y-93248518D02*
X161526696Y-92081792D01*
X164107636Y-94662732D02*
G75*
G02*
X162693422Y-93248518I-707107J707107D01*
G01*
%TO.C,R4*%
X146788000Y-84296000D02*
X146458000Y-84296000D01*
X146458000Y-84296000D02*
X146458000Y-77756000D01*
X146458000Y-77756000D02*
X146788000Y-77756000D01*
X148868000Y-84296000D02*
X149198000Y-84296000D01*
X149198000Y-84296000D02*
X149198000Y-77756000D01*
X149198000Y-77756000D02*
X148868000Y-77756000D01*
%TO.C,D1*%
X150190000Y-88019000D02*
X146305000Y-88019000D01*
X146305000Y-88019000D02*
X146305000Y-90289000D01*
X146305000Y-90289000D02*
X150190000Y-90289000D01*
%TO.C,C1*%
D12*
X197247142Y-94440666D02*
X197294761Y-94488285D01*
X197342380Y-94631142D01*
X197342380Y-94726380D01*
X197294761Y-94869238D01*
X197199523Y-94964476D01*
X197104285Y-95012095D01*
X196913809Y-95059714D01*
X196770952Y-95059714D01*
X196580476Y-95012095D01*
X196485238Y-94964476D01*
X196390000Y-94869238D01*
X196342380Y-94726380D01*
X196342380Y-94631142D01*
X196390000Y-94488285D01*
X196437619Y-94440666D01*
X197342380Y-93488285D02*
X197342380Y-94059714D01*
X197342380Y-93774000D02*
X196342380Y-93774000D01*
X196485238Y-93869238D01*
X196580476Y-93964476D01*
X196628095Y-94059714D01*
%TO.C,U2*%
X179196113Y-92322544D02*
X178623693Y-92894964D01*
X178590021Y-92995979D01*
X178590021Y-93063323D01*
X178623693Y-93164338D01*
X178758380Y-93299025D01*
X178859395Y-93332697D01*
X178926739Y-93332697D01*
X179027754Y-93299025D01*
X179600174Y-92726605D01*
X179835876Y-93096995D02*
X179903219Y-93096995D01*
X180004235Y-93130666D01*
X180172593Y-93299025D01*
X180206265Y-93400040D01*
X180206265Y-93467384D01*
X180172593Y-93568399D01*
X180105250Y-93635743D01*
X179970563Y-93703086D01*
X179162441Y-93703086D01*
X179600174Y-94140819D01*
%TO.C,R3*%
X159626380Y-81192666D02*
X159150190Y-81526000D01*
X159626380Y-81764095D02*
X158626380Y-81764095D01*
X158626380Y-81383142D01*
X158674000Y-81287904D01*
X158721619Y-81240285D01*
X158816857Y-81192666D01*
X158959714Y-81192666D01*
X159054952Y-81240285D01*
X159102571Y-81287904D01*
X159150190Y-81383142D01*
X159150190Y-81764095D01*
X158626380Y-80859333D02*
X158626380Y-80240285D01*
X159007333Y-80573619D01*
X159007333Y-80430761D01*
X159054952Y-80335523D01*
X159102571Y-80287904D01*
X159197809Y-80240285D01*
X159435904Y-80240285D01*
X159531142Y-80287904D01*
X159578761Y-80335523D01*
X159626380Y-80430761D01*
X159626380Y-80716476D01*
X159578761Y-80811714D01*
X159531142Y-80859333D01*
%TO.C,R2*%
X174866380Y-81192666D02*
X174390190Y-81526000D01*
X174866380Y-81764095D02*
X173866380Y-81764095D01*
X173866380Y-81383142D01*
X173914000Y-81287904D01*
X173961619Y-81240285D01*
X174056857Y-81192666D01*
X174199714Y-81192666D01*
X174294952Y-81240285D01*
X174342571Y-81287904D01*
X174390190Y-81383142D01*
X174390190Y-81764095D01*
X173961619Y-80811714D02*
X173914000Y-80764095D01*
X173866380Y-80668857D01*
X173866380Y-80430761D01*
X173914000Y-80335523D01*
X173961619Y-80287904D01*
X174056857Y-80240285D01*
X174152095Y-80240285D01*
X174294952Y-80287904D01*
X174866380Y-80859333D01*
X174866380Y-80240285D01*
%TO.C,R1*%
X190106380Y-81192666D02*
X189630190Y-81526000D01*
X190106380Y-81764095D02*
X189106380Y-81764095D01*
X189106380Y-81383142D01*
X189154000Y-81287904D01*
X189201619Y-81240285D01*
X189296857Y-81192666D01*
X189439714Y-81192666D01*
X189534952Y-81240285D01*
X189582571Y-81287904D01*
X189630190Y-81383142D01*
X189630190Y-81764095D01*
X190106380Y-80240285D02*
X190106380Y-80811714D01*
X190106380Y-80526000D02*
X189106380Y-80526000D01*
X189249238Y-80621238D01*
X189344476Y-80716476D01*
X189392095Y-80811714D01*
%TO.C,J1*%
X200415380Y-84246833D02*
X201129666Y-84246833D01*
X201272523Y-84294452D01*
X201367761Y-84389690D01*
X201415380Y-84532547D01*
X201415380Y-84627785D01*
X201415380Y-83246833D02*
X201415380Y-83818261D01*
X201415380Y-83532547D02*
X200415380Y-83532547D01*
X200558238Y-83627785D01*
X200653476Y-83723023D01*
X200701095Y-83818261D01*
%TO.C,J2*%
X147748666Y-91610380D02*
X147748666Y-92324666D01*
X147701047Y-92467523D01*
X147605809Y-92562761D01*
X147462952Y-92610380D01*
X147367714Y-92610380D01*
X148177238Y-91705619D02*
X148224857Y-91658000D01*
X148320095Y-91610380D01*
X148558190Y-91610380D01*
X148653428Y-91658000D01*
X148701047Y-91705619D01*
X148748666Y-91800857D01*
X148748666Y-91896095D01*
X148701047Y-92038952D01*
X148129619Y-92610380D01*
X148748666Y-92610380D01*
%TO.C,J3*%
X200112380Y-99647333D02*
X200826666Y-99647333D01*
X200969523Y-99694952D01*
X201064761Y-99790190D01*
X201112380Y-99933047D01*
X201112380Y-100028285D01*
X200112380Y-99266380D02*
X200112380Y-98647333D01*
X200493333Y-98980666D01*
X200493333Y-98837809D01*
X200540952Y-98742571D01*
X200588571Y-98694952D01*
X200683809Y-98647333D01*
X200921904Y-98647333D01*
X201017142Y-98694952D01*
X201064761Y-98742571D01*
X201112380Y-98837809D01*
X201112380Y-99123523D01*
X201064761Y-99218761D01*
X201017142Y-99266380D01*
%TO.C,Q1*%
X182713619Y-81375238D02*
X182666000Y-81470476D01*
X182570761Y-81565714D01*
X182427904Y-81708571D01*
X182380285Y-81803809D01*
X182380285Y-81899047D01*
X182618380Y-81851428D02*
X182570761Y-81946666D01*
X182475523Y-82041904D01*
X182285047Y-82089523D01*
X181951714Y-82089523D01*
X181761238Y-82041904D01*
X181666000Y-81946666D01*
X181618380Y-81851428D01*
X181618380Y-81660952D01*
X181666000Y-81565714D01*
X181761238Y-81470476D01*
X181951714Y-81422857D01*
X182285047Y-81422857D01*
X182475523Y-81470476D01*
X182570761Y-81565714D01*
X182618380Y-81660952D01*
X182618380Y-81851428D01*
X182618380Y-80470476D02*
X182618380Y-81041904D01*
X182618380Y-80756190D02*
X181618380Y-80756190D01*
X181761238Y-80851428D01*
X181856476Y-80946666D01*
X181904095Y-81041904D01*
%TO.C,Q2*%
X167473619Y-81375238D02*
X167426000Y-81470476D01*
X167330761Y-81565714D01*
X167187904Y-81708571D01*
X167140285Y-81803809D01*
X167140285Y-81899047D01*
X167378380Y-81851428D02*
X167330761Y-81946666D01*
X167235523Y-82041904D01*
X167045047Y-82089523D01*
X166711714Y-82089523D01*
X166521238Y-82041904D01*
X166426000Y-81946666D01*
X166378380Y-81851428D01*
X166378380Y-81660952D01*
X166426000Y-81565714D01*
X166521238Y-81470476D01*
X166711714Y-81422857D01*
X167045047Y-81422857D01*
X167235523Y-81470476D01*
X167330761Y-81565714D01*
X167378380Y-81660952D01*
X167378380Y-81851428D01*
X166473619Y-81041904D02*
X166426000Y-80994285D01*
X166378380Y-80899047D01*
X166378380Y-80660952D01*
X166426000Y-80565714D01*
X166473619Y-80518095D01*
X166568857Y-80470476D01*
X166664095Y-80470476D01*
X166806952Y-80518095D01*
X167378380Y-81089523D01*
X167378380Y-80470476D01*
%TO.C,Q3*%
X152233619Y-81375238D02*
X152186000Y-81470476D01*
X152090761Y-81565714D01*
X151947904Y-81708571D01*
X151900285Y-81803809D01*
X151900285Y-81899047D01*
X152138380Y-81851428D02*
X152090761Y-81946666D01*
X151995523Y-82041904D01*
X151805047Y-82089523D01*
X151471714Y-82089523D01*
X151281238Y-82041904D01*
X151186000Y-81946666D01*
X151138380Y-81851428D01*
X151138380Y-81660952D01*
X151186000Y-81565714D01*
X151281238Y-81470476D01*
X151471714Y-81422857D01*
X151805047Y-81422857D01*
X151995523Y-81470476D01*
X152090761Y-81565714D01*
X152138380Y-81660952D01*
X152138380Y-81851428D01*
X151138380Y-81089523D02*
X151138380Y-80470476D01*
X151519333Y-80803809D01*
X151519333Y-80660952D01*
X151566952Y-80565714D01*
X151614571Y-80518095D01*
X151709809Y-80470476D01*
X151947904Y-80470476D01*
X152043142Y-80518095D01*
X152090761Y-80565714D01*
X152138380Y-80660952D01*
X152138380Y-80946666D01*
X152090761Y-81041904D01*
X152043142Y-81089523D01*
%TO.C,U1*%
X194436113Y-92322544D02*
X193863693Y-92894964D01*
X193830021Y-92995979D01*
X193830021Y-93063323D01*
X193863693Y-93164338D01*
X193998380Y-93299025D01*
X194099395Y-93332697D01*
X194166739Y-93332697D01*
X194267754Y-93299025D01*
X194840174Y-92726605D01*
X194840174Y-94140819D02*
X194436113Y-93736758D01*
X194638143Y-93938788D02*
X195345250Y-93231682D01*
X195176891Y-93265353D01*
X195042204Y-93265353D01*
X194941189Y-93231682D01*
%TO.C,U3*%
X163956113Y-92322544D02*
X163383693Y-92894964D01*
X163350021Y-92995979D01*
X163350021Y-93063323D01*
X163383693Y-93164338D01*
X163518380Y-93299025D01*
X163619395Y-93332697D01*
X163686739Y-93332697D01*
X163787754Y-93299025D01*
X164360174Y-92726605D01*
X164629548Y-92995979D02*
X165067280Y-93433712D01*
X164562204Y-93467384D01*
X164663219Y-93568399D01*
X164696891Y-93669414D01*
X164696891Y-93736758D01*
X164663219Y-93837773D01*
X164494861Y-94006132D01*
X164393845Y-94039804D01*
X164326502Y-94039804D01*
X164225487Y-94006132D01*
X164023456Y-93804101D01*
X163989784Y-93703086D01*
X163989784Y-93635743D01*
%TO.C,R4*%
X145910380Y-81192666D02*
X145434190Y-81526000D01*
X145910380Y-81764095D02*
X144910380Y-81764095D01*
X144910380Y-81383142D01*
X144958000Y-81287904D01*
X145005619Y-81240285D01*
X145100857Y-81192666D01*
X145243714Y-81192666D01*
X145338952Y-81240285D01*
X145386571Y-81287904D01*
X145434190Y-81383142D01*
X145434190Y-81764095D01*
X145243714Y-80335523D02*
X145910380Y-80335523D01*
X144862761Y-80573619D02*
X145577047Y-80811714D01*
X145577047Y-80192666D01*
%TO.C,D1*%
X147851904Y-87786380D02*
X147851904Y-86786380D01*
X148090000Y-86786380D01*
X148232857Y-86834000D01*
X148328095Y-86929238D01*
X148375714Y-87024476D01*
X148423333Y-87214952D01*
X148423333Y-87357809D01*
X148375714Y-87548285D01*
X148328095Y-87643523D01*
X148232857Y-87738761D01*
X148090000Y-87786380D01*
X147851904Y-87786380D01*
X149375714Y-87786380D02*
X148804285Y-87786380D01*
X149090000Y-87786380D02*
X149090000Y-86786380D01*
X148994761Y-86929238D01*
X148899523Y-87024476D01*
X148804285Y-87072095D01*
%TO.C,H1*%
X151828595Y-106116380D02*
X151828595Y-105116380D01*
X151828595Y-105592571D02*
X152400023Y-105592571D01*
X152400023Y-106116380D02*
X152400023Y-105116380D01*
X153400023Y-106116380D02*
X152828595Y-106116380D01*
X153114309Y-106116380D02*
X153114309Y-105116380D01*
X153019071Y-105259238D01*
X152923833Y-105354476D01*
X152828595Y-105402095D01*
%TO.C,H2*%
X196596095Y-71628380D02*
X196596095Y-70628380D01*
X196596095Y-71104571D02*
X197167523Y-71104571D01*
X197167523Y-71628380D02*
X197167523Y-70628380D01*
X197596095Y-70723619D02*
X197643714Y-70676000D01*
X197738952Y-70628380D01*
X197977047Y-70628380D01*
X198072285Y-70676000D01*
X198119904Y-70723619D01*
X198167523Y-70818857D01*
X198167523Y-70914095D01*
X198119904Y-71056952D01*
X197548476Y-71628380D01*
X198167523Y-71628380D01*
%TO.C,H3*%
X151892095Y-71564880D02*
X151892095Y-70564880D01*
X151892095Y-71041071D02*
X152463523Y-71041071D01*
X152463523Y-71564880D02*
X152463523Y-70564880D01*
X152844476Y-70564880D02*
X153463523Y-70564880D01*
X153130190Y-70945833D01*
X153273047Y-70945833D01*
X153368285Y-70993452D01*
X153415904Y-71041071D01*
X153463523Y-71136309D01*
X153463523Y-71374404D01*
X153415904Y-71469642D01*
X153368285Y-71517261D01*
X153273047Y-71564880D01*
X152987333Y-71564880D01*
X152892095Y-71517261D01*
X152844476Y-71469642D01*
%TO.C,H4*%
X196786595Y-102806880D02*
X196786595Y-101806880D01*
X196786595Y-102283071D02*
X197358023Y-102283071D01*
X197358023Y-102806880D02*
X197358023Y-101806880D01*
X198262785Y-102140214D02*
X198262785Y-102806880D01*
X198024690Y-101759261D02*
X197786595Y-102473547D01*
X198405642Y-102473547D01*
%TD*%
M02*
