M48
; DRILL file {KiCad 5.1.6-c6e7f7d~87~ubuntu18.04.1} date Tue Jun  8 22:03:32 2021
; FORMAT={-:-/ absolute / inch / decimal}
; #@! TF.CreationDate,2021-06-08T22:03:32+01:00
; #@! TF.GenerationSoftware,Kicad,Pcbnew,5.1.6-c6e7f7d~87~ubuntu18.04.1
; #@! TF.FileFunction,Plated,1,2,PTH
FMAT,2
INCH
T1C0.0157
T2C0.0315
T3C0.0394
T4C0.0433
T5C0.0598
T6C0.0984
%
G90
G05
T1
X7.63Y-3.08
X7.63Y-3.14
X7.63Y-3.51
X7.64Y-3.27
X7.64Y-3.33
X7.65Y-3.11
X7.65Y-3.54
X7.66Y-3.3
X7.67Y-3.08
X7.67Y-3.14
X7.67Y-3.51
X7.67Y-4.02
X7.68Y-3.27
X7.68Y-3.33
X7.69Y-3.11
X7.69Y-3.54
X7.69Y-3.61
X7.69Y-3.67
X7.69Y-3.73
X7.69Y-3.99
X7.69Y-4.05
X7.7Y-3.3
X7.71Y-3.08
X7.71Y-3.14
X7.71Y-3.51
X7.71Y-3.57
X7.71Y-3.64
X7.71Y-3.7
X7.71Y-3.76
X7.71Y-3.96
X7.71Y-4.02
X7.72Y-3.27
X7.72Y-3.33
X7.73Y-3.11
X7.73Y-3.54
X7.73Y-3.61
X7.73Y-3.67
X7.73Y-3.73
X7.73Y-3.93
X7.73Y-3.99
X7.74Y-3.3
X7.75Y-3.08
X7.75Y-3.14
X7.75Y-3.51
X7.75Y-3.57
X7.75Y-3.64
X7.75Y-3.7
X7.75Y-3.76
X7.75Y-3.9
X7.75Y-3.96
X7.75Y-4.02
X7.76Y-3.27
X7.76Y-3.33
X7.77Y-3.11
X7.77Y-3.54
X7.77Y-3.67
X7.77Y-3.73
X7.77Y-3.87
X7.77Y-3.93
X7.77Y-3.99
X7.78Y-3.3
X7.79Y-3.08
X7.79Y-3.14
X7.79Y-3.51
X7.79Y-3.7
X7.79Y-3.76
X7.79Y-3.9
X7.79Y-3.96
X7.79Y-4.02
X7.8Y-3.27
X7.8Y-3.33
X7.81Y-3.11
X7.81Y-3.73
X7.81Y-3.87
X7.81Y-3.93
X7.81Y-3.99
X7.82Y-3.3
X7.83Y-3.08
X7.83Y-3.14
X7.83Y-3.51
X7.83Y-3.7
X7.83Y-3.76
X7.83Y-3.9
X7.83Y-3.96
X7.83Y-4.02
X7.84Y-3.27
X7.84Y-3.33
X7.85Y-3.11
X7.85Y-3.73
X7.85Y-3.87
X7.85Y-3.93
X7.85Y-3.99
X7.85Y-4.05
X7.86Y-3.3
X7.87Y-3.08
X7.87Y-3.14
X7.87Y-3.51
X7.87Y-3.7
X7.87Y-3.76
X7.87Y-3.9
X7.87Y-3.96
X7.87Y-4.02
X7.88Y-3.27
X7.88Y-3.33
X7.89Y-3.11
X7.89Y-3.73
X7.89Y-3.87
X7.89Y-3.93
X7.89Y-3.99
X7.89Y-4.05
X7.9Y-3.3
X7.91Y-3.08
X7.91Y-3.14
X7.91Y-3.51
X7.91Y-3.7
X7.91Y-3.76
X7.91Y-3.9
X7.91Y-3.96
X7.91Y-4.02
X7.92Y-3.27
X7.92Y-3.33
X7.93Y-3.11
X7.93Y-3.54
X7.93Y-3.67
X7.93Y-3.73
X7.93Y-3.87
X7.93Y-3.93
X7.93Y-3.99
X7.93Y-4.05
X7.94Y-3.3
X7.95Y-3.08
X7.95Y-3.14
X7.95Y-3.51
X7.95Y-3.57
X7.95Y-3.64
X7.95Y-3.7
X7.95Y-3.76
X7.95Y-3.9
X7.95Y-3.96
X7.95Y-4.02
X7.96Y-3.27
X7.96Y-3.33
X7.97Y-3.11
X7.97Y-3.54
X7.97Y-3.61
X7.97Y-3.67
X7.97Y-3.73
X7.97Y-3.87
X7.97Y-3.93
X7.97Y-3.99
X7.97Y-4.05
X7.98Y-3.3
X7.99Y-3.08
X7.99Y-3.14
X7.99Y-3.51
X7.99Y-3.57
X7.99Y-3.64
X7.99Y-3.7
X7.99Y-3.76
X7.99Y-3.9
X7.99Y-3.96
X7.99Y-4.02
X8.0Y-3.27
X8.0Y-3.33
X8.01Y-3.61
X8.01Y-3.67
X8.01Y-3.73
X8.01Y-3.87
X8.01Y-3.93
X8.01Y-3.99
X8.01Y-4.05
X8.03Y-3.7
X8.03Y-3.9
T2
X6.0779Y-3.8421
X6.1486Y-3.7714
X6.2193Y-3.7007
X6.29Y-3.63
X6.29Y-4.0543
X6.3607Y-3.9836
X6.4314Y-3.9128
X6.5021Y-3.8421
X6.36Y-3.04
X6.36Y-3.34
X6.96Y-3.04
X6.96Y-3.34
X7.2779Y-3.8421
X7.3486Y-3.7714
X7.4193Y-3.7007
X7.49Y-3.63
X7.49Y-4.0543
X7.5607Y-3.9836
X7.6314Y-3.9128
X7.7021Y-3.8421
X5.82Y-3.04
X5.82Y-3.34
X7.85Y-3.6131
X7.85Y-3.81
X6.6779Y-3.8421
X6.7486Y-3.7714
X6.8193Y-3.7007
X6.89Y-3.63
X6.89Y-4.0543
X6.9607Y-3.9836
X7.0314Y-3.9128
X7.1021Y-3.8421
X7.56Y-3.04
X7.56Y-3.34
T3
X5.83Y-3.72
X5.83Y-3.82
X5.83Y-3.92
X5.83Y-4.02
T4
X6.14Y-3.1
X6.14Y-3.2
X6.14Y-3.3
X6.74Y-3.1
X6.74Y-3.2
X6.74Y-3.3
X7.34Y-3.1
X7.34Y-3.2
X7.34Y-3.3
T5
X8.095Y-3.1025
X8.095Y-3.3025
X8.095Y-3.5025
X8.1Y-3.81
X8.1Y-4.01
T6
X6.0075Y-4.165
X7.77Y-2.94
X6.01Y-2.9375
X7.7775Y-4.1675
T0
M30
