%FSLAX45Y45*%
G04 Gerber Fmt 4.5, Leading zero omitted, Abs format (unit mm)*
G04 Created by KiCad (PCBNEW 5.1.6-c6e7f7d~87~ubuntu18.04.1) date 2021-06-08 22:03:30*
%MOMM*%
%LPD*%
G01*
G04 APERTURE LIST*
%TA.AperFunction,Profile*%
%ADD10C,0.050000*%
%TD*%
%ADD11C,0.200000*%
%ADD12C,0.300000*%
G04 APERTURE END LIST*
D10*
X21132800Y-10439400D02*
G75*
G02*
X20980400Y-10591800I-152400J0D01*
G01*
X20980400Y-7467600D02*
G75*
G02*
X21132800Y-7620000I0J-152400D01*
G01*
X14503400Y-7620000D02*
X14503400Y-10439400D01*
X14503400Y-7620000D02*
G75*
G02*
X14655800Y-7467600I152400J0D01*
G01*
X14655800Y-10591800D02*
G75*
G02*
X14503400Y-10439400I0J152400D01*
G01*
X14655800Y-7467600D02*
X14757400Y-7467600D01*
X14732000Y-10591800D02*
X14655800Y-10591800D01*
X19253200Y-10591800D02*
X15748000Y-10591800D01*
X20980400Y-10591800D02*
X20269200Y-10591800D01*
X21132800Y-7620000D02*
X21132800Y-10439400D01*
X20243800Y-7467600D02*
X20980400Y-7467600D01*
X15773400Y-7467600D02*
X19227800Y-7467600D01*
X20269200Y-10591800D02*
G75*
G02*
X19253200Y-10591800I-508000J0D01*
G01*
X19227800Y-7467600D02*
G75*
G02*
X20243800Y-7467600I508000J0D01*
G01*
X14757400Y-7467600D02*
G75*
G02*
X15773400Y-7467600I508000J0D01*
G01*
X15748000Y-10591800D02*
G75*
G02*
X14732000Y-10591800I-508000J0D01*
G01*
D11*
D12*
X14787328Y-11568014D02*
X14787328Y-11268014D01*
X14858757Y-11268014D01*
X14901614Y-11282300D01*
X14930186Y-11310871D01*
X14944471Y-11339443D01*
X14958757Y-11396586D01*
X14958757Y-11439443D01*
X14944471Y-11496586D01*
X14930186Y-11525157D01*
X14901614Y-11553729D01*
X14858757Y-11568014D01*
X14787328Y-11568014D01*
X15087328Y-11568014D02*
X15087328Y-11368014D01*
X15087328Y-11425157D02*
X15101614Y-11396586D01*
X15115900Y-11382300D01*
X15144471Y-11368014D01*
X15173043Y-11368014D01*
X15273043Y-11568014D02*
X15273043Y-11368014D01*
X15273043Y-11268014D02*
X15258757Y-11282300D01*
X15273043Y-11296586D01*
X15287328Y-11282300D01*
X15273043Y-11268014D01*
X15273043Y-11296586D01*
X15458757Y-11568014D02*
X15430186Y-11553729D01*
X15415900Y-11525157D01*
X15415900Y-11268014D01*
X15615900Y-11568014D02*
X15587328Y-11553729D01*
X15573043Y-11525157D01*
X15573043Y-11268014D01*
X15958757Y-11568014D02*
X15958757Y-11268014D01*
X16058757Y-11482300D01*
X16158757Y-11268014D01*
X16158757Y-11568014D01*
X16430186Y-11568014D02*
X16430186Y-11410871D01*
X16415900Y-11382300D01*
X16387328Y-11368014D01*
X16330186Y-11368014D01*
X16301614Y-11382300D01*
X16430186Y-11553729D02*
X16401614Y-11568014D01*
X16330186Y-11568014D01*
X16301614Y-11553729D01*
X16287328Y-11525157D01*
X16287328Y-11496586D01*
X16301614Y-11468014D01*
X16330186Y-11453729D01*
X16401614Y-11453729D01*
X16430186Y-11439443D01*
X16573043Y-11368014D02*
X16573043Y-11668014D01*
X16573043Y-11382300D02*
X16601614Y-11368014D01*
X16658757Y-11368014D01*
X16687328Y-11382300D01*
X16701614Y-11396586D01*
X16715900Y-11425157D01*
X16715900Y-11510871D01*
X16701614Y-11539443D01*
X16687328Y-11553729D01*
X16658757Y-11568014D01*
X16601614Y-11568014D01*
X16573043Y-11553729D01*
X16844471Y-11539443D02*
X16858757Y-11553729D01*
X16844471Y-11568014D01*
X16830186Y-11553729D01*
X16844471Y-11539443D01*
X16844471Y-11568014D01*
X16844471Y-11382300D02*
X16858757Y-11396586D01*
X16844471Y-11410871D01*
X16830186Y-11396586D01*
X16844471Y-11382300D01*
X16844471Y-11410871D01*
M02*
